<?xml version="1.0" encoding="UTF-8"?>
<svg id="Layer_1" data-name="Layer 1" xmlns="http://www.w3.org/2000/svg" viewBox="0 0 310.68 421.53">
  <defs>
    <style>
      .cls-1 {
        isolation: isolate;
      }

      .cls-2 {
        fill: #020202;
      }

      .cls-3 {
        fill: #c31616;
      }
    </style>
  </defs>
  <path class="cls-2" d="M206.18,303c-13.3,16-20.5,24.9-33.8,33.7-10.5,7-20.7,13.9-34.5,13.6-11-.2-22-4.4-31.3-12.5-21.1-18.3-40.3-38.3-55.4-62-18.1-28.4-30.7-59-35.5-92.3-2.4-16.4-3.4-33.1-3.8-49.7-.6-22.6-.2-45.3-.2-68s6.4-20,19.8-20c30,0,60,0,90.4.4,1.1.2,1.8,0,2.4,0h.5c6.2,0,12.5-.3,18.7,0,1.2,0,3.3,1.9,3.3,2.9.2,15.3,0,30.6,0,46v.4c-.3.8-1.1,1.3-1.9,1.3h-80.3c-1.2,0-2.1.9-2.1,2.1,0,11.7.2,23.2,0,34.6-.9,36.1,6.4,70.3,23.6,102.2,11.8,22,27.9,40.5,46.2,57.2,2,1.8,3.9,3.6,5.9,5.4.2.2.6.3.8.4,20.8-18.7,39.7-38.8,53-63.8,11-20.8,17.8-42.8,21.6-65.9.2-1.5,1.9-3.8,3-3.8,15.1-.2,30.1-.2,45.8-.2,2.4,0,2.2,1.1,2.1,2.3-.6,6.3-4,27.9-5.8,34-3,10-3.1,11.5-5,17.6-2.3,7.3-4.5,12.6-6.4,17.4-1,2.4-5,12-10.5,22.4-2.4,4.5-12,22.2-30.5,44.4h-.1v-.1Z"/>
  <path class="cls-3" d="M259.98.2c4.59,0,4.7,0,4.7,4.4v37.46h0c0,3.64-.11,3.64,2.11,3.64l15.19.2h22.99c5.71-.2,5.51.08,5.51,4.31.2,14.13.2,26.64.2,41.38,0,2.87-2.33,5.21-5.2,5.21h-3c-11.3,0-22.2.2-33,0-3.8,0-4.8,1.3-4.8,4.9.2,11.7,0,23.3,0,35,0,5.86-.03,6-7.49,6-12.3,0-25.61-.2-37.91,0-5.41,0-5.4,0-5.4-5.3.3-11.7.1-23.3,0-35,0-1.8.5-5.7-3.6-5.7h-36.8c-5.47,0-5.4-.16-5.4-3.9v-5.3c0-12.2.2-24.3,0-36.5,0-4.3,1.4-5.3,5.4-5.2,11.7.2,23.3,0,35,0,5.31,0,5.39-.1,5.4-4.4.03-8.9,0-17.4,0-26s.2-6.5.3-10.9,3.8-4.5,3.8-4.5h11.4"/>
  <g class="cls-1">
    <g class="cls-1">
      <g class="cls-1">
        <path d="M30.27,384.75l8.78,2.78c-1.35,4.89-3.58,8.53-6.71,10.9-3.13,2.38-7.1,3.56-11.91,3.56-5.95,0-10.84-2.03-14.68-6.1-3.83-4.07-5.75-9.63-5.75-16.68,0-7.46,1.93-13.25,5.78-17.38s8.92-6.19,15.2-6.19c5.48,0,9.94,1.62,13.36,4.86,2.04,1.92,3.57,4.67,4.59,8.26l-8.96,2.14c-.53-2.32-1.64-4.16-3.32-5.5-1.68-1.35-3.73-2.02-6.13-2.02-3.32,0-6.02,1.19-8.09,3.58-2.07,2.38-3.1,6.25-3.1,11.59,0,5.67,1.02,9.7,3.06,12.11,2.04,2.41,4.69,3.61,7.95,3.61,2.41,0,4.47-.76,6.21-2.29,1.73-1.53,2.98-3.93,3.73-7.22Z"/>
        <path d="M46.75,401.23v-44.82h8.59v44.82h-8.59Z"/>
        <path d="M64.15,364.35v-7.95h8.59v7.95h-8.59ZM64.15,401.23v-32.47h8.59v32.47h-8.59Z"/>
        <path d="M111.08,401.23h-8.59v-16.57c0-3.51-.18-5.77-.55-6.8-.37-1.03-.96-1.83-1.79-2.4-.83-.57-1.82-.86-2.98-.86-1.49,0-2.82.41-4.01,1.22-1.18.82-1.99,1.9-2.43,3.24-.44,1.35-.66,3.83-.66,7.46v14.71h-8.59v-32.47h7.98v4.77c2.83-3.67,6.4-5.5,10.7-5.5,1.9,0,3.63.34,5.2,1.02,1.57.68,2.76,1.55,3.56,2.61.81,1.06,1.37,2.26,1.68,3.61.32,1.34.47,3.27.47,5.78v20.18Z"/>
        <path d="M119.58,401.23v-44.82h9.05v44.82h-9.05Z"/>
        <path d="M173.34,395.54c2.22,1.59,4.64,2.85,7.25,3.79l-3.33,6.39c-1.37-.41-2.7-.97-4.01-1.68-.29-.14-2.29-1.47-6.02-3.98-2.94,1.28-6.19,1.93-9.75,1.93-6.89,0-12.29-2.03-16.19-6.08-3.9-4.06-5.86-9.75-5.86-17.09s1.96-13.01,5.87-17.08c3.91-4.07,9.22-6.1,15.93-6.1s11.91,2.03,15.81,6.1c3.89,4.07,5.84,9.76,5.84,17.08,0,3.87-.54,7.28-1.62,10.21-.82,2.24-2.12,4.41-3.91,6.51ZM166.06,390.43c1.16-1.37,2.03-3.02,2.61-4.95.58-1.94.87-4.16.87-6.67,0-5.18-1.14-9.05-3.42-11.6-2.28-2.56-5.27-3.84-8.96-3.84s-6.68,1.28-8.97,3.85-3.44,6.43-3.44,11.59,1.15,9.16,3.44,11.76c2.29,2.6,5.19,3.9,8.7,3.9,1.3,0,2.54-.21,3.7-.64-1.83-1.2-3.7-2.14-5.6-2.81l2.54-5.17c2.98,1.02,5.82,2.55,8.53,4.59Z"/>
        <path d="M186.21,401.23v-44.46h9.05v36.91h22.5v7.55h-31.55Z"/>
        <path d="M224.15,364.35v-7.95h8.59v7.95h-8.59ZM224.15,401.23v-32.47h8.59v32.47h-8.59Z"/>
        <path d="M271.09,401.23h-8.59v-16.57c0-3.51-.18-5.77-.55-6.8-.37-1.03-.96-1.83-1.79-2.4-.83-.57-1.82-.86-2.98-.86-1.49,0-2.82.41-4.01,1.22-1.18.82-1.99,1.9-2.43,3.24-.44,1.35-.66,3.83-.66,7.46v14.71h-8.59v-32.47h7.98v4.77c2.83-3.67,6.4-5.5,10.7-5.5,1.9,0,3.63.34,5.2,1.02,1.57.68,2.76,1.55,3.56,2.61.8,1.06,1.37,2.26,1.68,3.61.32,1.34.47,3.27.47,5.78v20.18Z"/>
        <path d="M279.5,401.23v-44.82h8.59v23.79l10.06-11.44h10.58l-11.1,11.86,11.89,20.61h-9.26l-8.16-14.58-4,4.19v10.4h-8.59Z"/>
      </g>
    </g>
  </g>
  <g class="cls-1">
    <g class="cls-1">
      <g class="cls-1">
        <path d="M76.38,421.33v-11.92h2.43v9.89h6.03v2.02h-8.46Z"/>
        <path d="M86.63,421.33v-11.92h2.43v9.89h6.03v2.02h-8.46Z"/>
        <path d="M96.79,421.33v-12.02h3.63l2.18,8.2,2.16-8.2h3.64v12.02h-2.25v-9.46l-2.39,9.46h-2.34l-2.38-9.46v9.46h-2.25Z"/>
        <path d="M115.53,421.33v-11.92h2.43v9.89h6.03v2.02h-8.46Z"/>
        <path d="M125.7,411.45v-2.13h2.3v2.13h-2.3ZM125.7,421.33v-8.7h2.3v8.7h-2.3Z"/>
        <path d="M135.41,418.56l2.29.39c-.29.84-.76,1.48-1.4,1.92-.64.44-1.43.66-2.39.66-1.51,0-2.63-.49-3.36-1.48-.57-.79-.86-1.79-.86-3,0-1.44.38-2.57,1.13-3.39.75-.82,1.71-1.23,2.86-1.23,1.29,0,2.32.43,3.07,1.28.75.85,1.11,2.17,1.07,3.93h-5.77c.02.68.2,1.21.56,1.59.35.38.8.57,1.33.57.36,0,.66-.1.91-.29.25-.2.43-.51.56-.95ZM135.54,416.24c-.02-.67-.19-1.17-.52-1.52-.33-.35-.73-.52-1.2-.52-.5,0-.92.18-1.25.55-.33.37-.49.86-.48,1.49h3.44Z"/>
        <path d="M144.37,409.32h4.43c1,0,1.76.08,2.29.23.71.21,1.31.58,1.81,1.11.5.53.89,1.18,1.15,1.95.26.77.39,1.71.39,2.84,0,.99-.12,1.84-.37,2.56-.3.87-.73,1.58-1.29,2.12-.42.41-.99.73-1.71.96-.54.17-1.25.25-2.15.25h-4.57v-12.02ZM146.8,411.35v7.96h1.81c.68,0,1.17-.04,1.47-.12.39-.1.72-.26.98-.5.26-.23.47-.62.63-1.16s.25-1.27.25-2.2-.08-1.64-.25-2.14-.39-.89-.69-1.16-.67-.47-1.12-.57c-.34-.08-1-.12-1.99-.12h-1.09Z"/>
        <path d="M161.53,418.56l2.3.39c-.3.84-.76,1.48-1.4,1.92-.64.44-1.43.66-2.39.66-1.51,0-2.63-.49-3.36-1.48-.57-.79-.86-1.79-.86-3,0-1.44.38-2.57,1.13-3.39s1.71-1.23,2.86-1.23c1.29,0,2.32.43,3.07,1.28.75.85,1.11,2.17,1.07,3.93h-5.77c.02.68.2,1.21.56,1.59.36.38.8.57,1.33.57.36,0,.66-.1.91-.29.25-.2.43-.51.56-.95ZM161.66,416.24c-.02-.67-.19-1.17-.52-1.52-.33-.35-.73-.52-1.2-.52-.5,0-.92.18-1.25.55s-.49.86-.48,1.49h3.44Z"/>
        <path d="M169.81,412.63v1.84h-1.57v3.51c0,.71.01,1.12.04,1.24.03.12.1.21.21.29.11.08.24.12.39.12.21,0,.52-.07.93-.22l.2,1.79c-.54.23-1.14.34-1.82.34-.42,0-.79-.07-1.12-.21-.33-.14-.58-.32-.73-.54-.16-.22-.26-.52-.32-.9-.05-.27-.07-.81-.07-1.62v-3.79h-1.06v-1.84h1.06v-1.73l2.31-1.34v3.07h1.57Z"/>
        <path d="M176.45,418.56l2.3.39c-.3.84-.76,1.48-1.4,1.92-.64.44-1.43.66-2.39.66-1.51,0-2.63-.49-3.36-1.48-.57-.79-.86-1.79-.86-3,0-1.44.38-2.57,1.13-3.39s1.71-1.23,2.86-1.23c1.29,0,2.32.43,3.07,1.28.75.85,1.11,2.17,1.07,3.93h-5.77c.02.68.2,1.21.56,1.59.36.38.8.57,1.33.57.36,0,.66-.1.91-.29.25-.2.43-.51.56-.95ZM176.59,416.24c-.02-.67-.19-1.17-.52-1.52-.33-.35-.73-.52-1.2-.52-.5,0-.92.18-1.25.55s-.49.86-.48,1.49h3.44Z"/>
        <path d="M188.34,415.2l-2.27.41c-.08-.45-.25-.79-.52-1.02s-.62-.34-1.05-.34c-.57,0-1.03.2-1.37.59-.34.4-.51,1.06-.51,1.99,0,1.03.17,1.76.52,2.19.35.43.81.64,1.4.64.44,0,.79-.12,1.07-.37.28-.25.48-.68.59-1.28l2.26.39c-.23,1.04-.69,1.82-1.35,2.35-.67.53-1.56.79-2.68.79-1.27,0-2.29-.4-3.04-1.2-.76-.8-1.14-1.92-1.14-3.34s.38-2.56,1.14-3.36,1.79-1.2,3.08-1.2c1.06,0,1.9.23,2.53.68s1.08,1.15,1.35,2.09Z"/>
        <path d="M194.08,412.63v1.84h-1.57v3.51c0,.71.01,1.12.04,1.24.03.12.1.21.21.29.11.08.24.12.39.12.21,0,.52-.07.93-.22l.2,1.79c-.54.23-1.14.34-1.82.34-.42,0-.79-.07-1.12-.21-.33-.14-.58-.32-.73-.54-.16-.22-.26-.52-.32-.9-.05-.27-.07-.81-.07-1.62v-3.79h-1.06v-1.84h1.06v-1.73l2.31-1.34v3.07h1.57Z"/>
        <path d="M195.14,416.86c0-.76.19-1.5.57-2.22s.91-1.26,1.6-1.64,1.46-.57,2.32-.57c1.32,0,2.4.43,3.24,1.28.84.85,1.26,1.94,1.26,3.24s-.42,2.41-1.27,3.27-1.92,1.3-3.21,1.3c-.8,0-1.56-.18-2.28-.54-.72-.36-1.28-.89-1.65-1.59-.38-.7-.57-1.54-.57-2.54ZM197.5,416.98c0,.86.21,1.52.62,1.98s.92.69,1.52.69,1.1-.23,1.51-.69.61-1.12.61-2-.2-1.51-.61-1.97-.91-.69-1.51-.69-1.11.23-1.52.69-.62,1.12-.62,1.98Z"/>
        <path d="M208.13,421.33h-2.3v-8.7h2.14v1.24c.37-.58.7-.97.99-1.16.29-.19.62-.28,1-.28.52,0,1.03.15,1.52.43l-.71,2.01c-.39-.25-.75-.38-1.08-.38s-.6.09-.82.27-.4.5-.53.96c-.13.46-.19,1.44-.19,2.92v2.69Z"/>
        <path d="M219.85,421.33v-9.98h-3.57v-2.03h9.55v2.03h-3.56v9.98h-2.43Z"/>
        <path d="M231.17,418.56l2.3.39c-.3.84-.76,1.48-1.4,1.92-.64.44-1.43.66-2.39.66-1.51,0-2.63-.49-3.36-1.48-.57-.79-.86-1.79-.86-3,0-1.44.38-2.57,1.13-3.39s1.71-1.23,2.86-1.23c1.29,0,2.32.43,3.07,1.28.75.85,1.11,2.17,1.07,3.93h-5.77c.02.68.2,1.21.56,1.59.36.38.8.57,1.33.57.36,0,.66-.1.91-.29.25-.2.43-.51.56-.95ZM231.3,416.24c-.02-.67-.19-1.17-.52-1.52-.33-.35-.73-.52-1.2-.52-.5,0-.92.18-1.25.55s-.49.86-.48,1.49h3.44Z"/>
        <path d="M234.66,418.85l2.31-.35c.1.45.3.79.6,1.02.3.23.72.35,1.26.35.6,0,1.04-.11,1.34-.33.2-.15.3-.36.3-.62,0-.17-.05-.32-.16-.43-.11-.11-.37-.21-.77-.3-1.86-.41-3.04-.78-3.53-1.12-.69-.47-1.03-1.12-1.03-1.96,0-.75.3-1.39.89-1.9s1.52-.77,2.77-.77,2.08.19,2.66.58.98.96,1.2,1.72l-2.17.4c-.09-.34-.27-.6-.53-.78-.26-.18-.63-.27-1.11-.27-.61,0-1.04.08-1.3.25-.17.12-.26.28-.26.47,0,.16.08.3.23.42.21.15.92.37,2.15.65,1.23.28,2.08.62,2.57,1.02.48.41.72.98.72,1.71,0,.8-.33,1.48-1,2.06-.67.57-1.65.86-2.96.86-1.19,0-2.12-.24-2.82-.72s-1.14-1.13-1.36-1.96Z"/>
        <path d="M248.79,412.63v1.84h-1.57v3.51c0,.71.01,1.12.04,1.24.03.12.1.21.21.29.11.08.24.12.39.12.21,0,.52-.07.93-.22l.2,1.79c-.54.23-1.14.34-1.82.34-.42,0-.79-.07-1.12-.21-.33-.14-.58-.32-.73-.54-.16-.22-.26-.52-.32-.9-.05-.27-.07-.81-.07-1.62v-3.79h-1.06v-1.84h1.06v-1.73l2.31-1.34v3.07h1.57Z"/>
      </g>
    </g>
  </g>
</svg>